<svg viewBox="0 0 32 27" xmlns="http://www.w3.org/2000/svg" xmlns:xlink="http://www.w3.org/1999/xlink" width="32.000000" height="27.000000" fill="none" customFrame="#000000">
	<path id="РУ" d="M8.61816 16.2231L3.86963 16.2231L3.86963 14.3066L8.61816 14.3066C9.53776 14.3066 10.2824 14.1602 10.8521 13.8672C11.4217 13.5742 11.8368 13.1673 12.0972 12.6465C12.3657 12.1257 12.5 11.5316 12.5 10.8643C12.5 10.2539 12.3657 9.68018 12.0972 9.14307C11.8368 8.60596 11.4217 8.17464 10.8521 7.84912C10.2824 7.51546 9.53776 7.34863 8.61816 7.34863L4.41895 7.34863L4.41895 23.1934L2.06299 23.1934L2.06299 5.41992L8.61816 5.41992C9.96094 5.41992 11.0962 5.65186 12.0239 6.11572C12.9517 6.57959 13.6556 7.22249 14.1357 8.04443C14.6159 8.85824 14.856 9.79004 14.856 10.8398C14.856 11.9792 14.6159 12.9517 14.1357 13.7573C13.6556 14.563 12.9517 15.1774 12.0239 15.6006C11.0962 16.0156 9.96094 16.2231 8.61816 16.2231ZM23.5898 17.2974L28.2896 5.41992L30.9995 5.41992L24.7129 20.2271C24.5339 20.6421 24.3345 21.0449 24.1147 21.4355C23.895 21.818 23.6265 22.1598 23.3091 22.4609C22.9917 22.762 22.597 23.0021 22.125 23.1812C21.6611 23.3602 21.0833 23.4497 20.3916 23.4497C20.1963 23.4497 19.9644 23.4375 19.6958 23.4131C19.4272 23.3968 19.2523 23.3765 19.1709 23.3521L19.2441 21.4722C19.3337 21.4884 19.5086 21.5047 19.769 21.521C20.0295 21.5291 20.2207 21.5332 20.3428 21.5332C20.8066 21.5332 21.1729 21.4396 21.4414 21.2524C21.71 21.0653 21.9256 20.8293 22.0884 20.5444C22.2593 20.2515 22.4139 19.9544 22.5522 19.6533L23.5898 17.2974ZM19.5981 5.41992L24.542 16.4917L25.1279 18.6768L23.1504 18.8232L16.9614 5.41992L19.5981 5.41992Z" fill="rgb(0,0,0)" fill-opacity="0.600000024" fill-rule="nonzero" />
</svg>
